<?xml version="1.0" standalone="no"?>
<!DOCTYPE svg PUBLIC "-//W3C//DTD SVG 20010904//EN"
 "http://www.w3.org/TR/2001/REC-SVG-20010904/DTD/svg10.dtd">
<svg version="1.0" xmlns="http://www.w3.org/2000/svg"
 width="512.000000pt" height="512.000000pt" viewBox="0 0 512.000000 512.000000"
 preserveAspectRatio="xMidYMid meet">

<g transform="translate(0.000000,512.000000) scale(0.100000,-0.100000)"
fill="#FDFEFF" stroke="none">
<path d="M1870 3831 c-99 -31 -160 -111 -160 -211 0 -54 44 -133 92 -166 l41
-29 639 -3 c351 -1 638 -6 638 -10 0 -4 -405 -412 -900 -907 -870 -869 -901
-902 -916 -953 -47 -161 98 -305 259 -258 50 15 91 54 947 911 492 492 898
895 902 895 4 0 9 -283 10 -628 l3 -629 29 -41 c33 -48 112 -92 166 -92 80 0
156 44 193 113 l22 42 3 865 c2 476 0 888 -3 917 -8 66 -51 131 -107 163 l-43
25 -895 2 c-492 1 -906 -2 -920 -6z"/>
</g>
</svg>
